# xmcd CD database file
#
# Track frame offsets:
#	150
#	15641
#	30401
#	44554
#	59679
#	73286
#	85886
#	101545
#	115196
#	127686
#	141264
#	154086
#	167078
#	182712
#	196370
#	208655
#	223973
#	239113
#	252105
#	262618
#	271776
#	284664
#	294859
#	308682
#
# Disc length: 4308 seconds
#
# Revision: 0
# Processed by: cddbd v1.5.2PL0 Copyright (c) Steve Scherf et al.
# Submitted via: CDex 1.79
#
DISCID=6610d218
DTITLE=National Blues Museum - From the Beginning Vol 1 Disc 3
DYEAR=2017
DGENRE=Blues
TTITLE0=Black Angel
TTITLE1=Mississippi Swamp Moan
TTITLE2=Cold Winter Blues
TTITLE3=Weepin' and Cryin'
TTITLE4=Eyesight to the Blind
TTITLE5=My Time is Expensive
TTITLE6=Born with the Blues
TTITLE7=Blue Shadows
TTITLE8=I Feel So Good
TTITLE9=Sweet Home Chicago
TTITLE10=Fixin' to Die
TTITLE11=Blowin' the Blues
TTITLE12=Crazy Cryin' Blues
TTITLE13=Working Man Blues
TTITLE14=Ella Speed
TTITLE15=Baby Please Don't Go
TTITLE16=Romance in the Dark
TTITLE17=Worried Life Blues
TTITLE18=Prescription for the Blues
TTITLE19=Just Pickin'
TTITLE20=Sweet Sixteen
TTITLE21=Rollin' and Tumblin'
TTITLE22=St. Louis Blues
TTITLE23=Dope Head Blues
EXTD=
EXTT0=
EXTT1=
EXTT2=
EXTT3=
EXTT4=
EXTT5=
EXTT6=
EXTT7=
EXTT8=
EXTT9=
EXTT10=
EXTT11=
EXTT12=
EXTT13=
EXTT14=
EXTT15=
EXTT16=
EXTT17=
EXTT18=
EXTT19=
EXTT20=
EXTT21=
EXTT22=
EXTT23=
PLAYORDER=
